<svg width="18" height="22" viewBox="0 0 18 22" fill="none" xmlns="http://www.w3.org/2000/svg">
<path d="M16 2.75C16 2.05964 15.4404 1.5 14.75 1.5H2.75C2.05964 1.5 1.5 2.05964 1.5 2.75V3.75C1.5 4.44036 2.05964 5 2.75 5H14.75C15.4404 5 16 4.44036 16 3.75V2.75ZM17.5 3.75C17.5 5.26878 16.2688 6.5 14.75 6.5H2.75C1.23122 6.5 0 5.26878 0 3.75V2.75C0 1.23122 1.23122 0 2.75 0H14.75C16.2688 0 17.5 1.23122 17.5 2.75V3.75Z" fill="#3AAF2A"/>
<path d="M16 10.5C16 9.80964 15.4404 9.25 14.75 9.25H2.75C2.05964 9.25 1.5 9.80964 1.5 10.5V11.5C1.5 12.1904 2.05964 12.75 2.75 12.75H14.75C15.4404 12.75 16 12.1904 16 11.5V10.5ZM17.5 11.5C17.5 13.0188 16.2688 14.25 14.75 14.25H2.75C1.23122 14.25 0 13.0188 0 11.5V10.5C0 8.98122 1.23122 7.75 2.75 7.75H14.75C16.2688 7.75 17.5 8.98122 17.5 10.5V11.5Z" fill="#3AAF2A"/>
<path d="M16 18.25C16 17.5596 15.4404 17 14.75 17H2.75C2.05964 17 1.5 17.5596 1.5 18.25V19.25C1.5 19.9404 2.05964 20.5 2.75 20.5H14.75C15.4404 20.5 16 19.9404 16 19.25V18.25ZM17.5 19.25C17.5 20.7688 16.2688 22 14.75 22H2.75C1.23122 22 0 20.7688 0 19.25V18.25C0 16.7312 1.23122 15.5 2.75 15.5H14.75C16.2688 15.5 17.5 16.7312 17.5 18.25V19.25Z" fill="#3AAF2A"/>
</svg>
